# xmcd
#
# Track frame offsets: 
#        150
#        10531
#        22759
#        34382
#        46448
#        56695
#        70368
#        81440
#        93464
#        106801
#        120699
#        132254
#        142832
#        154970
#        165652
#        179211
#        190655
#        202283
#        213334
#        226056
#        237494
#        251024
#        263681
#        275789
#        289218
#
# Disc length: 3981 seconds
#
# Revision: 0
# Processed by: cddbd v1.5.2PL0 Copyright (c) Steve Scherf et al.
# Submitted via: ExactAudioCopy v1.0b3
#
DISCID=730f8b19
DTITLE=Various Artist - Chess Pieces Volume 3
DYEAR=1900
DGENRE=Soul
TTITLE0=Willie Kendrick - Let Me Know
TTITLE1=Stereos - I Can't Stop These Tears
TTITLE2=Chessman - Nothing But You
TTITLE3=Jan Bradley - Your Kind Of Lovin'
TTITLE4=Johnny Nash - Love Ain't Nothin'
TTITLE5=Ty Hunter - Lonely Baby
TTITLE6=Etta James - Fire
TTITLE7=James Phelps - Action
TTITLE8=La Mont Anthony - Just To Be Loved
TTITLE9=Jackey Beaver - Jack A Rue
TTITLE10=Jackie Beavers - Sling Shot
TTITLE11=Harold Hutton - It's A Good Thing
TTITLE12=Bobby Rush - Much Too Much
TTITLE13=Tammy Mongomery - This Time Tomorrow
TTITLE14=Kittens - How Long (Can I Go On)
TTITLE15=Joe Cato - Save Our Love
TTITLE16=Tommy and Cleve - Bird Dog
TTITLE17=Jackie Ross - Take For A Little While
TTITLE18=Gospel Classics - You Need Faith
TTITLE19=Barbra Carr - Shake Your Head
TTITLE20=Tommy and Cleve - I Dont Want To Share Your Love
TTITLE21=Babara Carr - I'm Gonna Make A Man Out Of You
TTITLE22=Tony Clarke - Joyce Elaine
TTITLE23=Johnny Twist - Go Go Baby
TTITLE24=Fontella Bass - Sweet Lovin' Daddy
EXTD=
EXTT0=
EXTT1=
EXTT2=
EXTT3=
EXTT4=
EXTT5=
EXTT6=
EXTT7=
EXTT8=
EXTT9=
EXTT10=
EXTT11=
EXTT12=
EXTT13=
EXTT14=
EXTT15=
EXTT16=
EXTT17=
EXTT18=
EXTT19=
EXTT20=
EXTT21=
EXTT22=
EXTT23=
EXTT24=
PLAYORDER=
